<mxfile host="drawio-plugin" modified="2022-11-05T21:58:52.768Z" agent="5.0 (Windows NT 6.2; Win64; x64) AppleWebKit/537.36 (KHTML, like Gecko) Chrome/98.0.4758.102 Safari/537.36" etag="Oi2Dow5rs3LF8b-un_8G" version="15.5.4" type="embed" pages="3"><diagram id="C5RBs43oDa-KdzZeNtuy" name="Page-1"><mxGraphModel dx="1330" dy="1095" grid="1" gridSize="10" guides="1" tooltips="1" connect="1" arrows="1" fold="1" page="1" pageScale="1" pageWidth="827" pageHeight="1169" math="0" shadow="0"><root><mxCell id="WIyWlLk6GJQsqaUBKTNV-0"/><mxCell id="WIyWlLk6GJQsqaUBKTNV-1" parent="WIyWlLk6GJQsqaUBKTNV-0"/><mxCell id="WIyWlLk6GJQsqaUBKTNV-2" value="" style="rounded=0;html=1;jettySize=auto;orthogonalLoop=1;fontSize=11;endArrow=block;endFill=0;endSize=8;strokeWidth=1;shadow=0;labelBackgroundColor=none;edgeStyle=orthogonalEdgeStyle;" parent="WIyWlLk6GJQsqaUBKTNV-1" source="WIyWlLk6GJQsqaUBKTNV-3" target="WIyWlLk6GJQsqaUBKTNV-6" edge="1"><mxGeometry relative="1" as="geometry"/></mxCell><mxCell id="WIyWlLk6GJQsqaUBKTNV-3" value="Lamp doesn't work" style="rounded=1;whiteSpace=wrap;html=1;fontSize=12;glass=0;strokeWidth=1;shadow=0;" parent="WIyWlLk6GJQsqaUBKTNV-1" vertex="1"><mxGeometry x="160" y="80" width="120" height="40" as="geometry"/></mxCell><mxCell id="WIyWlLk6GJQsqaUBKTNV-4" value="Yes" style="rounded=0;html=1;jettySize=auto;orthogonalLoop=1;fontSize=11;endArrow=block;endFill=0;endSize=8;strokeWidth=1;shadow=0;labelBackgroundColor=none;edgeStyle=orthogonalEdgeStyle;" parent="WIyWlLk6GJQsqaUBKTNV-1" source="WIyWlLk6GJQsqaUBKTNV-6" target="WIyWlLk6GJQsqaUBKTNV-10" edge="1"><mxGeometry y="20" relative="1" as="geometry"><mxPoint as="offset"/></mxGeometry></mxCell><mxCell id="WIyWlLk6GJQsqaUBKTNV-5" value="No" style="edgeStyle=orthogonalEdgeStyle;rounded=0;html=1;jettySize=auto;orthogonalLoop=1;fontSize=11;endArrow=block;endFill=0;endSize=8;strokeWidth=1;shadow=0;labelBackgroundColor=none;" parent="WIyWlLk6GJQsqaUBKTNV-1" source="WIyWlLk6GJQsqaUBKTNV-6" target="WIyWlLk6GJQsqaUBKTNV-7" edge="1"><mxGeometry y="10" relative="1" as="geometry"><mxPoint as="offset"/></mxGeometry></mxCell><mxCell id="WIyWlLk6GJQsqaUBKTNV-6" value="Lamp&lt;br&gt;plugged in?" style="rhombus;whiteSpace=wrap;html=1;shadow=0;fontFamily=Helvetica;fontSize=12;align=center;strokeWidth=1;spacing=6;spacingTop=-4;" parent="WIyWlLk6GJQsqaUBKTNV-1" vertex="1"><mxGeometry x="170" y="170" width="100" height="80" as="geometry"/></mxCell><mxCell id="WIyWlLk6GJQsqaUBKTNV-7" value="Plug in lamp" style="rounded=1;whiteSpace=wrap;html=1;fontSize=12;glass=0;strokeWidth=1;shadow=0;" parent="WIyWlLk6GJQsqaUBKTNV-1" vertex="1"><mxGeometry x="320" y="190" width="120" height="40" as="geometry"/></mxCell><mxCell id="WIyWlLk6GJQsqaUBKTNV-8" value="No" style="rounded=0;html=1;jettySize=auto;orthogonalLoop=1;fontSize=11;endArrow=block;endFill=0;endSize=8;strokeWidth=1;shadow=0;labelBackgroundColor=none;edgeStyle=orthogonalEdgeStyle;" parent="WIyWlLk6GJQsqaUBKTNV-1" source="WIyWlLk6GJQsqaUBKTNV-10" target="WIyWlLk6GJQsqaUBKTNV-11" edge="1"><mxGeometry x="0.3333" y="20" relative="1" as="geometry"><mxPoint as="offset"/></mxGeometry></mxCell><mxCell id="WIyWlLk6GJQsqaUBKTNV-9" value="Yes" style="edgeStyle=orthogonalEdgeStyle;rounded=0;html=1;jettySize=auto;orthogonalLoop=1;fontSize=11;endArrow=block;endFill=0;endSize=8;strokeWidth=1;shadow=0;labelBackgroundColor=none;" parent="WIyWlLk6GJQsqaUBKTNV-1" source="WIyWlLk6GJQsqaUBKTNV-10" target="WIyWlLk6GJQsqaUBKTNV-12" edge="1"><mxGeometry y="10" relative="1" as="geometry"><mxPoint as="offset"/></mxGeometry></mxCell><mxCell id="WIyWlLk6GJQsqaUBKTNV-10" value="Bulb&lt;br&gt;burned out?" style="rhombus;whiteSpace=wrap;html=1;shadow=0;fontFamily=Helvetica;fontSize=12;align=center;strokeWidth=1;spacing=6;spacingTop=-4;" parent="WIyWlLk6GJQsqaUBKTNV-1" vertex="1"><mxGeometry x="170" y="290" width="100" height="80" as="geometry"/></mxCell><mxCell id="WIyWlLk6GJQsqaUBKTNV-11" value="Repair Lamp" style="rounded=1;whiteSpace=wrap;html=1;fontSize=12;glass=0;strokeWidth=1;shadow=0;" parent="WIyWlLk6GJQsqaUBKTNV-1" vertex="1"><mxGeometry x="160" y="430" width="120" height="40" as="geometry"/></mxCell><mxCell id="WIyWlLk6GJQsqaUBKTNV-12" value="Replace Bulb" style="rounded=1;whiteSpace=wrap;html=1;fontSize=12;glass=0;strokeWidth=1;shadow=0;" parent="WIyWlLk6GJQsqaUBKTNV-1" vertex="1"><mxGeometry x="320" y="310" width="120" height="40" as="geometry"/></mxCell></root></mxGraphModel></diagram><diagram id="bVxIeenKiTjKEP6gVgrI" name="Page-2"><mxGraphModel dx="1330" dy="1095" grid="1" gridSize="10" guides="1" tooltips="1" connect="1" arrows="1" fold="1" page="1" pageScale="1" pageWidth="850" pageHeight="1100" math="0" shadow="0"><root><mxCell id="0"/><mxCell id="1" parent="0"/><mxCell id="S7aSJp7KH9CWf2IAGYGh-4" value="" style="rounded=0;whiteSpace=wrap;html=1;" parent="1" vertex="1"><mxGeometry x="160" y="200" width="520" height="760" as="geometry"/></mxCell><mxCell id="S7aSJp7KH9CWf2IAGYGh-6" value="Fan out" style="rounded=0;whiteSpace=wrap;html=1;" parent="1" vertex="1"><mxGeometry x="80" y="400" width="160" height="80" as="geometry"/></mxCell><mxCell id="S7aSJp7KH9CWf2IAGYGh-7" value="Fan In" style="rounded=0;whiteSpace=wrap;html=1;" parent="1" vertex="1"><mxGeometry x="600" y="800" width="160" height="80" as="geometry"/></mxCell><mxCell id="S7aSJp7KH9CWf2IAGYGh-8" value="Moisture&lt;br&gt;Humidity&lt;br&gt;Temperature&lt;br&gt;Light sensor" style="rounded=0;whiteSpace=wrap;html=1;" parent="1" vertex="1"><mxGeometry x="340" y="800" width="160" height="160" as="geometry"/></mxCell><mxCell id="S7aSJp7KH9CWf2IAGYGh-9" value="Light sensor" style="rounded=0;whiteSpace=wrap;html=1;" parent="1" vertex="1"><mxGeometry x="340" y="430" width="160" height="370" as="geometry"/></mxCell><mxCell id="S7aSJp7KH9CWf2IAGYGh-10" value="Lights (3)" style="rounded=0;whiteSpace=wrap;html=1;" parent="1" vertex="1"><mxGeometry x="240" y="200" width="360" height="80" as="geometry"/></mxCell><mxCell id="S7aSJp7KH9CWf2IAGYGh-11" value="Water level&lt;br&gt;" style="rounded=0;whiteSpace=wrap;html=1;" parent="1" vertex="1"><mxGeometry x="160" y="840" width="120" height="120" as="geometry"/></mxCell><mxCell id="S7aSJp7KH9CWf2IAGYGh-12" value="Water bomb" style="rounded=0;whiteSpace=wrap;html=1;" parent="1" vertex="1"><mxGeometry x="160" y="780" width="180" height="60" as="geometry"/></mxCell><mxCell id="S7aSJp7KH9CWf2IAGYGh-13" value="Temperature&lt;br&gt;" style="whiteSpace=wrap;html=1;aspect=fixed;" parent="1" vertex="1"><mxGeometry x="580" y="500" width="100" height="100" as="geometry"/></mxCell><mxCell id="S7aSJp7KH9CWf2IAGYGh-14" value="Weight" style="rounded=0;whiteSpace=wrap;html=1;" parent="1" vertex="1"><mxGeometry x="340" y="930" width="160" height="30" as="geometry"/></mxCell></root></mxGraphModel></diagram><diagram id="bvmRIfdNEHuNu4dlxhFM" name="Diagram"><mxGraphModel dx="1330" dy="1095" grid="1" gridSize="10" guides="1" tooltips="1" connect="1" arrows="1" fold="1" page="1" pageScale="1" pageWidth="850" pageHeight="1100" math="0" shadow="0"><root><mxCell id="xFf--KAxYvPF0xousI3j-0"/><mxCell id="xFf--KAxYvPF0xousI3j-1" parent="xFf--KAxYvPF0xousI3j-0"/><mxCell id="xFf--KAxYvPF0xousI3j-24" value="" style="html=1;verticalLabelPosition=bottom;align=center;labelBackgroundColor=#ffffff;verticalAlign=top;strokeWidth=2;strokeColor=#0080F0;shadow=0;dashed=0;shape=mxgraph.ios7.icons.lightbulb;" vertex="1" parent="xFf--KAxYvPF0xousI3j-1"><mxGeometry x="637.2" y="510.15" width="22.8" height="29.7" as="geometry"/></mxCell><mxCell id="xFf--KAxYvPF0xousI3j-25" value="Fan in" style="shape=mxgraph.pid.compressors_-_iso.blower,_fan;html=1;pointerEvents=1;align=center;verticalLabelPosition=bottom;verticalAlign=top;dashed=0;" vertex="1" parent="xFf--KAxYvPF0xousI3j-1"><mxGeometry x="475" y="500" width="50" height="50" as="geometry"/></mxCell><mxCell id="xFf--KAxYvPF0xousI3j-26" value="Fan Out" style="shape=mxgraph.pid.compressors_-_iso.blower,_fan;html=1;pointerEvents=1;align=center;verticalLabelPosition=bottom;verticalAlign=top;dashed=0;" vertex="1" parent="xFf--KAxYvPF0xousI3j-1"><mxGeometry x="545" y="500" width="50" height="50" as="geometry"/></mxCell><mxCell id="xFf--KAxYvPF0xousI3j-27" value="" style="edgeStyle=orthogonalEdgeStyle;rounded=0;orthogonalLoop=1;jettySize=auto;html=1;exitX=0.5;exitY=0;exitDx=0;exitDy=0;exitPerimeter=0;" edge="1" parent="xFf--KAxYvPF0xousI3j-1" source="xFf--KAxYvPF0xousI3j-58" target="xFf--KAxYvPF0xousI3j-25"><mxGeometry relative="1" as="geometry"><mxPoint x="530" y="640" as="sourcePoint"/></mxGeometry></mxCell><mxCell id="xFf--KAxYvPF0xousI3j-28" value="" style="edgeStyle=orthogonalEdgeStyle;rounded=0;orthogonalLoop=1;jettySize=auto;html=1;exitX=0.5;exitY=0;exitDx=0;exitDy=0;exitPerimeter=0;" edge="1" parent="xFf--KAxYvPF0xousI3j-1" source="xFf--KAxYvPF0xousI3j-60" target="xFf--KAxYvPF0xousI3j-26"><mxGeometry relative="1" as="geometry"><mxPoint x="605" y="640" as="sourcePoint"/><Array as="points"/></mxGeometry></mxCell><mxCell id="xFf--KAxYvPF0xousI3j-29" value="" style="edgeStyle=orthogonalEdgeStyle;rounded=0;orthogonalLoop=1;jettySize=auto;html=1;exitX=0.45;exitY=0.15;exitDx=0;exitDy=0;exitPerimeter=0;" edge="1" parent="xFf--KAxYvPF0xousI3j-1" source="xFf--KAxYvPF0xousI3j-62" target="xFf--KAxYvPF0xousI3j-24"><mxGeometry relative="1" as="geometry"><mxPoint x="680" y="640" as="sourcePoint"/></mxGeometry></mxCell><mxCell id="xFf--KAxYvPF0xousI3j-92" style="edgeStyle=orthogonalEdgeStyle;rounded=0;orthogonalLoop=1;jettySize=auto;html=1;exitX=1;exitY=0.25;exitDx=0;exitDy=0;entryX=0;entryY=0.5;entryDx=0;entryDy=0;fontSize=12;" edge="1" parent="xFf--KAxYvPF0xousI3j-1" source="xFf--KAxYvPF0xousI3j-45" target="xFf--KAxYvPF0xousI3j-88"><mxGeometry relative="1" as="geometry"/></mxCell><mxCell id="xFf--KAxYvPF0xousI3j-95" style="edgeStyle=orthogonalEdgeStyle;rounded=0;orthogonalLoop=1;jettySize=auto;html=1;exitX=1;exitY=0.25;exitDx=0;exitDy=0;entryX=0;entryY=0.5;entryDx=0;entryDy=0;fontSize=12;" edge="1" parent="xFf--KAxYvPF0xousI3j-1" source="xFf--KAxYvPF0xousI3j-45" target="xFf--KAxYvPF0xousI3j-86"><mxGeometry relative="1" as="geometry"/></mxCell><mxCell id="xFf--KAxYvPF0xousI3j-96" style="edgeStyle=orthogonalEdgeStyle;rounded=0;orthogonalLoop=1;jettySize=auto;html=1;exitX=1;exitY=0.25;exitDx=0;exitDy=0;entryX=0;entryY=0.5;entryDx=0;entryDy=0;fontSize=12;" edge="1" parent="xFf--KAxYvPF0xousI3j-1" source="xFf--KAxYvPF0xousI3j-45" target="xFf--KAxYvPF0xousI3j-83"><mxGeometry relative="1" as="geometry"/></mxCell><mxCell id="xFf--KAxYvPF0xousI3j-97" style="edgeStyle=orthogonalEdgeStyle;rounded=0;orthogonalLoop=1;jettySize=auto;html=1;exitX=1;exitY=0.75;exitDx=0;exitDy=0;entryX=0;entryY=0.5;entryDx=0;entryDy=0;fontSize=12;" edge="1" parent="xFf--KAxYvPF0xousI3j-1" source="xFf--KAxYvPF0xousI3j-45" target="xFf--KAxYvPF0xousI3j-50"><mxGeometry relative="1" as="geometry"/></mxCell><mxCell id="xFf--KAxYvPF0xousI3j-45" value="Main device" style="swimlane;" vertex="1" parent="xFf--KAxYvPF0xousI3j-1"><mxGeometry x="100" y="339.85" width="200" height="200" as="geometry"><mxRectangle x="100" y="600" width="100" height="23" as="alternateBounds"/></mxGeometry></mxCell><mxCell id="xFf--KAxYvPF0xousI3j-41" value="CO2 sensor" style="rounded=0;whiteSpace=wrap;html=1;" vertex="1" parent="xFf--KAxYvPF0xousI3j-45"><mxGeometry x="10" y="110" width="100" height="40" as="geometry"/></mxCell><mxCell id="xFf--KAxYvPF0xousI3j-40" value="Humidity sensor&lt;span style=&quot;color: rgba(0 , 0 , 0 , 0) ; font-family: monospace ; font-size: 0px&quot;&gt;%3CmxGraphModel%3E%3Croot%3E%3CmxCell%20id%3D%220%22%2F%3E%3CmxCell%20id%3D%221%22%20parent%3D%220%22%2F%3E%3CmxCell%20id%3D%222%22%20value%3D%22Thermometer%22%20style%3D%22rounded%3D0%3BwhiteSpace%3Dwrap%3Bhtml%3D1%3B%22%20vertex%3D%221%22%20parent%3D%221%22%3E%3CmxGeometry%20x%3D%22110%22%20y%3D%22630%22%20width%3D%22100%22%20height%3D%2240%22%20as%3D%22geometry%22%2F%3E%3C%2FmxCell%3E%3C%2Froot%3E%3C%2FmxGraphModel%3E&lt;/span&gt;" style="rounded=0;whiteSpace=wrap;html=1;" vertex="1" parent="xFf--KAxYvPF0xousI3j-45"><mxGeometry x="10" y="70" width="100" height="40" as="geometry"/></mxCell><mxCell id="xFf--KAxYvPF0xousI3j-34" value="Thermometer" style="rounded=0;whiteSpace=wrap;html=1;" vertex="1" parent="xFf--KAxYvPF0xousI3j-45"><mxGeometry x="10" y="30" width="100" height="40" as="geometry"/></mxCell><mxCell id="xFf--KAxYvPF0xousI3j-46" value="Thermometer" style="rounded=0;whiteSpace=wrap;html=1;" vertex="1" parent="xFf--KAxYvPF0xousI3j-45"><mxGeometry x="10" y="150" width="100" height="40" as="geometry"/></mxCell><mxCell id="xFf--KAxYvPF0xousI3j-36" value="WiFi" style="rounded=0;whiteSpace=wrap;html=1;direction=west;" vertex="1" parent="xFf--KAxYvPF0xousI3j-45"><mxGeometry x="120" y="30" width="70" height="70" as="geometry"/></mxCell><mxCell id="xFf--KAxYvPF0xousI3j-43" value="Alarm" style="rounded=0;whiteSpace=wrap;html=1;" vertex="1" parent="xFf--KAxYvPF0xousI3j-45"><mxGeometry x="120" y="110" width="70" height="20" as="geometry"/></mxCell><mxCell id="xFf--KAxYvPF0xousI3j-48" value="Ext battery" style="rounded=0;whiteSpace=wrap;html=1;" vertex="1" parent="xFf--KAxYvPF0xousI3j-45"><mxGeometry x="120" y="140" width="70" height="50" as="geometry"/></mxCell><mxCell id="xFf--KAxYvPF0xousI3j-50" value="Vertical Container" style="swimlane;labelBackgroundColor=none;" vertex="1" parent="xFf--KAxYvPF0xousI3j-1"><mxGeometry x="460" y="640" width="380" height="200" as="geometry"/></mxCell><mxCell id="xFf--KAxYvPF0xousI3j-51" value="Relay module&amp;nbsp;" style="shape=process;whiteSpace=wrap;html=1;backgroundOutline=1;" vertex="1" parent="xFf--KAxYvPF0xousI3j-50"><mxGeometry x="80" y="75" width="60" height="60" as="geometry"/></mxCell><mxCell id="xFf--KAxYvPF0xousI3j-52" value="Relay module&amp;nbsp;" style="shape=process;whiteSpace=wrap;html=1;backgroundOutline=1;" vertex="1" parent="xFf--KAxYvPF0xousI3j-50"><mxGeometry x="160" y="75" width="60" height="60" as="geometry"/></mxCell><mxCell id="xFf--KAxYvPF0xousI3j-53" value="Relay module&amp;nbsp;" style="shape=process;whiteSpace=wrap;html=1;backgroundOutline=1;" vertex="1" parent="xFf--KAxYvPF0xousI3j-50"><mxGeometry x="10" y="75" width="60" height="60" as="geometry"/></mxCell><mxCell id="xFf--KAxYvPF0xousI3j-54" value="" style="pointerEvents=1;verticalLabelPosition=bottom;shadow=0;dashed=0;align=center;html=1;verticalAlign=top;shape=mxgraph.electrical.miscellaneous.plug_socket_connection" vertex="1" parent="xFf--KAxYvPF0xousI3j-50"><mxGeometry x="30" y="180" width="20" height="20" as="geometry"/></mxCell><mxCell id="xFf--KAxYvPF0xousI3j-55" value="" style="edgeStyle=orthogonalEdgeStyle;rounded=0;orthogonalLoop=1;jettySize=auto;html=1;" edge="1" parent="xFf--KAxYvPF0xousI3j-50" source="xFf--KAxYvPF0xousI3j-54" target="xFf--KAxYvPF0xousI3j-53"><mxGeometry relative="1" as="geometry"/></mxCell><mxCell id="xFf--KAxYvPF0xousI3j-56" value="" style="pointerEvents=1;verticalLabelPosition=bottom;shadow=0;dashed=0;align=center;html=1;verticalAlign=top;shape=mxgraph.electrical.miscellaneous.plug_socket_connection" vertex="1" parent="xFf--KAxYvPF0xousI3j-50"><mxGeometry x="100" y="180" width="20" height="20" as="geometry"/></mxCell><mxCell id="xFf--KAxYvPF0xousI3j-57" value="" style="edgeStyle=orthogonalEdgeStyle;rounded=0;orthogonalLoop=1;jettySize=auto;html=1;" edge="1" parent="xFf--KAxYvPF0xousI3j-50" source="xFf--KAxYvPF0xousI3j-56" target="xFf--KAxYvPF0xousI3j-51"><mxGeometry relative="1" as="geometry"/></mxCell><mxCell id="xFf--KAxYvPF0xousI3j-58" value="" style="pointerEvents=1;verticalLabelPosition=bottom;shadow=0;dashed=0;align=center;html=1;verticalAlign=top;shape=mxgraph.electrical.miscellaneous.plug_socket_connection" vertex="1" parent="xFf--KAxYvPF0xousI3j-50"><mxGeometry x="30" y="20" width="20" height="20" as="geometry"/></mxCell><mxCell id="xFf--KAxYvPF0xousI3j-59" value="" style="edgeStyle=orthogonalEdgeStyle;rounded=0;orthogonalLoop=1;jettySize=auto;html=1;" edge="1" parent="xFf--KAxYvPF0xousI3j-50" source="xFf--KAxYvPF0xousI3j-53" target="xFf--KAxYvPF0xousI3j-58"><mxGeometry relative="1" as="geometry"/></mxCell><mxCell id="xFf--KAxYvPF0xousI3j-60" value="" style="pointerEvents=1;verticalLabelPosition=bottom;shadow=0;dashed=0;align=center;html=1;verticalAlign=top;shape=mxgraph.electrical.miscellaneous.plug_socket_connection" vertex="1" parent="xFf--KAxYvPF0xousI3j-50"><mxGeometry x="100" y="20" width="20" height="20" as="geometry"/></mxCell><mxCell id="xFf--KAxYvPF0xousI3j-61" value="" style="edgeStyle=orthogonalEdgeStyle;rounded=0;orthogonalLoop=1;jettySize=auto;html=1;" edge="1" parent="xFf--KAxYvPF0xousI3j-50" source="xFf--KAxYvPF0xousI3j-51" target="xFf--KAxYvPF0xousI3j-60"><mxGeometry relative="1" as="geometry"/></mxCell><mxCell id="xFf--KAxYvPF0xousI3j-62" value="" style="pointerEvents=1;verticalLabelPosition=bottom;shadow=0;dashed=0;align=center;html=1;verticalAlign=top;shape=mxgraph.electrical.miscellaneous.plug_socket_connection" vertex="1" parent="xFf--KAxYvPF0xousI3j-50"><mxGeometry x="180" y="20" width="20" height="20" as="geometry"/></mxCell><mxCell id="xFf--KAxYvPF0xousI3j-63" value="" style="edgeStyle=orthogonalEdgeStyle;rounded=0;orthogonalLoop=1;jettySize=auto;html=1;" edge="1" parent="xFf--KAxYvPF0xousI3j-50" source="xFf--KAxYvPF0xousI3j-52" target="xFf--KAxYvPF0xousI3j-62"><mxGeometry relative="1" as="geometry"/></mxCell><mxCell id="xFf--KAxYvPF0xousI3j-64" value="" style="pointerEvents=1;verticalLabelPosition=bottom;shadow=0;dashed=0;align=center;html=1;verticalAlign=top;shape=mxgraph.electrical.miscellaneous.plug_socket_connection" vertex="1" parent="xFf--KAxYvPF0xousI3j-50"><mxGeometry x="180" y="180" width="20" height="20" as="geometry"/></mxCell><mxCell id="xFf--KAxYvPF0xousI3j-65" style="edgeStyle=orthogonalEdgeStyle;rounded=0;orthogonalLoop=1;jettySize=auto;html=1;exitX=0.5;exitY=0;exitDx=0;exitDy=0;exitPerimeter=0;entryX=0.5;entryY=1;entryDx=0;entryDy=0;" edge="1" parent="xFf--KAxYvPF0xousI3j-50" source="xFf--KAxYvPF0xousI3j-64" target="xFf--KAxYvPF0xousI3j-52"><mxGeometry relative="1" as="geometry"/></mxCell><mxCell id="xFf--KAxYvPF0xousI3j-68" value="Relay module&amp;nbsp;" style="shape=process;whiteSpace=wrap;html=1;backgroundOutline=1;" vertex="1" parent="xFf--KAxYvPF0xousI3j-50"><mxGeometry x="230" y="75" width="60" height="60" as="geometry"/></mxCell><mxCell id="xFf--KAxYvPF0xousI3j-69" value="" style="pointerEvents=1;verticalLabelPosition=bottom;shadow=0;dashed=0;align=center;html=1;verticalAlign=top;shape=mxgraph.electrical.miscellaneous.plug_socket_connection" vertex="1" parent="xFf--KAxYvPF0xousI3j-50"><mxGeometry x="250" y="20" width="20" height="20" as="geometry"/></mxCell><mxCell id="xFf--KAxYvPF0xousI3j-70" value="" style="edgeStyle=orthogonalEdgeStyle;rounded=0;orthogonalLoop=1;jettySize=auto;html=1;" edge="1" parent="xFf--KAxYvPF0xousI3j-50" source="xFf--KAxYvPF0xousI3j-68" target="xFf--KAxYvPF0xousI3j-69"><mxGeometry relative="1" as="geometry"/></mxCell><mxCell id="xFf--KAxYvPF0xousI3j-71" value="" style="pointerEvents=1;verticalLabelPosition=bottom;shadow=0;dashed=0;align=center;html=1;verticalAlign=top;shape=mxgraph.electrical.miscellaneous.plug_socket_connection" vertex="1" parent="xFf--KAxYvPF0xousI3j-50"><mxGeometry x="250" y="180" width="20" height="20" as="geometry"/></mxCell><mxCell id="xFf--KAxYvPF0xousI3j-72" style="edgeStyle=orthogonalEdgeStyle;rounded=0;orthogonalLoop=1;jettySize=auto;html=1;exitX=0.5;exitY=0;exitDx=0;exitDy=0;exitPerimeter=0;entryX=0.5;entryY=1;entryDx=0;entryDy=0;" edge="1" parent="xFf--KAxYvPF0xousI3j-50" source="xFf--KAxYvPF0xousI3j-71" target="xFf--KAxYvPF0xousI3j-68"><mxGeometry relative="1" as="geometry"/></mxCell><mxCell id="xFf--KAxYvPF0xousI3j-73" value="Relay module&amp;nbsp;" style="shape=process;whiteSpace=wrap;html=1;backgroundOutline=1;" vertex="1" parent="xFf--KAxYvPF0xousI3j-50"><mxGeometry x="310" y="75" width="60" height="60" as="geometry"/></mxCell><mxCell id="xFf--KAxYvPF0xousI3j-74" value="" style="pointerEvents=1;verticalLabelPosition=bottom;shadow=0;dashed=0;align=center;html=1;verticalAlign=top;shape=mxgraph.electrical.miscellaneous.plug_socket_connection" vertex="1" parent="xFf--KAxYvPF0xousI3j-50"><mxGeometry x="330" y="20" width="20" height="20" as="geometry"/></mxCell><mxCell id="xFf--KAxYvPF0xousI3j-75" value="" style="edgeStyle=orthogonalEdgeStyle;rounded=0;orthogonalLoop=1;jettySize=auto;html=1;" edge="1" parent="xFf--KAxYvPF0xousI3j-50" source="xFf--KAxYvPF0xousI3j-73" target="xFf--KAxYvPF0xousI3j-74"><mxGeometry relative="1" as="geometry"/></mxCell><mxCell id="xFf--KAxYvPF0xousI3j-76" value="" style="pointerEvents=1;verticalLabelPosition=bottom;shadow=0;dashed=0;align=center;html=1;verticalAlign=top;shape=mxgraph.electrical.miscellaneous.plug_socket_connection" vertex="1" parent="xFf--KAxYvPF0xousI3j-50"><mxGeometry x="330" y="180" width="20" height="20" as="geometry"/></mxCell><mxCell id="xFf--KAxYvPF0xousI3j-77" style="edgeStyle=orthogonalEdgeStyle;rounded=0;orthogonalLoop=1;jettySize=auto;html=1;exitX=0.5;exitY=0;exitDx=0;exitDy=0;exitPerimeter=0;entryX=0.5;entryY=1;entryDx=0;entryDy=0;" edge="1" parent="xFf--KAxYvPF0xousI3j-50" source="xFf--KAxYvPF0xousI3j-76" target="xFf--KAxYvPF0xousI3j-73"><mxGeometry relative="1" as="geometry"/></mxCell><mxCell id="xFf--KAxYvPF0xousI3j-78" value="" style="html=1;verticalLabelPosition=bottom;align=center;labelBackgroundColor=#ffffff;verticalAlign=top;strokeWidth=2;strokeColor=#0080F0;shadow=0;dashed=0;shape=mxgraph.ios7.icons.lightbulb;" vertex="1" parent="xFf--KAxYvPF0xousI3j-1"><mxGeometry x="708.6" y="510.15" width="22.8" height="29.7" as="geometry"/></mxCell><mxCell id="xFf--KAxYvPF0xousI3j-80" value="" style="edgeStyle=orthogonalEdgeStyle;rounded=0;orthogonalLoop=1;jettySize=auto;html=1;entryX=0.541;entryY=1.033;entryDx=0;entryDy=0;entryPerimeter=0;" edge="1" parent="xFf--KAxYvPF0xousI3j-1" source="xFf--KAxYvPF0xousI3j-69" target="xFf--KAxYvPF0xousI3j-78"><mxGeometry relative="1" as="geometry"><mxPoint x="730" y="540" as="targetPoint"/></mxGeometry></mxCell><mxCell id="xFf--KAxYvPF0xousI3j-81" value="" style="dashed=0;outlineConnect=0;align=right;html=1;shape=mxgraph.pid.engines.electric_motor_(dc);fontSize=45;labelBackgroundColor=none;" vertex="1" parent="xFf--KAxYvPF0xousI3j-1"><mxGeometry x="775" y="500" width="50" height="50" as="geometry"/></mxCell><mxCell id="xFf--KAxYvPF0xousI3j-82" value="" style="edgeStyle=orthogonalEdgeStyle;rounded=0;orthogonalLoop=1;jettySize=auto;html=1;" edge="1" parent="xFf--KAxYvPF0xousI3j-1" source="xFf--KAxYvPF0xousI3j-74" target="xFf--KAxYvPF0xousI3j-81"><mxGeometry relative="1" as="geometry"/></mxCell><mxCell id="xFf--KAxYvPF0xousI3j-83" value="Ground sensor" style="swimlane;labelBackgroundColor=none;fontSize=12;align=center;" vertex="1" parent="xFf--KAxYvPF0xousI3j-1"><mxGeometry x="480" y="330" width="100" height="120" as="geometry"/></mxCell><mxCell id="xFf--KAxYvPF0xousI3j-98" value="Light sensor" style="rounded=0;whiteSpace=wrap;html=1;labelBackgroundColor=none;fontSize=12;align=center;" vertex="1" parent="xFf--KAxYvPF0xousI3j-83"><mxGeometry x="10" y="30" width="80" height="20" as="geometry"/></mxCell><mxCell id="xFf--KAxYvPF0xousI3j-99" value="Moisture" style="rounded=0;whiteSpace=wrap;html=1;labelBackgroundColor=none;fontSize=12;align=center;" vertex="1" parent="xFf--KAxYvPF0xousI3j-83"><mxGeometry x="10" y="59.85000000000002" width="80" height="20" as="geometry"/></mxCell><mxCell id="xFf--KAxYvPF0xousI3j-100" value="Temperature" style="rounded=0;whiteSpace=wrap;html=1;labelBackgroundColor=none;fontSize=12;align=center;" vertex="1" parent="xFf--KAxYvPF0xousI3j-83"><mxGeometry x="10" y="90" width="80" height="20" as="geometry"/></mxCell><mxCell id="xFf--KAxYvPF0xousI3j-86" value="Water sensor" style="swimlane;labelBackgroundColor=none;fontSize=12;align=center;" vertex="1" parent="xFf--KAxYvPF0xousI3j-1"><mxGeometry x="480" y="200" width="100" height="120" as="geometry"/></mxCell><mxCell id="xFf--KAxYvPF0xousI3j-87" value="Water level sensor" style="whiteSpace=wrap;html=1;aspect=fixed;" vertex="1" parent="xFf--KAxYvPF0xousI3j-86"><mxGeometry x="10" y="30" width="80" height="80" as="geometry"/></mxCell><mxCell id="xFf--KAxYvPF0xousI3j-88" value="Platform weight" style="swimlane;labelBackgroundColor=none;fontSize=12;align=center;" vertex="1" parent="xFf--KAxYvPF0xousI3j-1"><mxGeometry x="480" y="70" width="100" height="120" as="geometry"><mxRectangle x="480" y="70" width="120" height="23" as="alternateBounds"/></mxGeometry></mxCell><mxCell id="xFf--KAxYvPF0xousI3j-89" value="Weight sensor" style="whiteSpace=wrap;html=1;aspect=fixed;" vertex="1" parent="xFf--KAxYvPF0xousI3j-88"><mxGeometry x="10" y="30" width="80" height="80" as="geometry"/></mxCell><mxCell id="xFf--KAxYvPF0xousI3j-104" value="" style="edgeStyle=orthogonalEdgeStyle;rounded=0;orthogonalLoop=1;jettySize=auto;html=1;fontSize=12;" edge="1" parent="xFf--KAxYvPF0xousI3j-1" source="xFf--KAxYvPF0xousI3j-101" target="xFf--KAxYvPF0xousI3j-103"><mxGeometry relative="1" as="geometry"/></mxCell><mxCell id="xFf--KAxYvPF0xousI3j-101" value="IoT" style="rounded=0;whiteSpace=wrap;html=1;direction=west;" vertex="1" parent="xFf--KAxYvPF0xousI3j-1"><mxGeometry x="220" y="219.85000000000002" width="70" height="70" as="geometry"/></mxCell><mxCell id="xFf--KAxYvPF0xousI3j-102" value="" style="edgeStyle=orthogonalEdgeStyle;rounded=0;orthogonalLoop=1;jettySize=auto;html=1;fontSize=12;" edge="1" parent="xFf--KAxYvPF0xousI3j-1" source="xFf--KAxYvPF0xousI3j-36" target="xFf--KAxYvPF0xousI3j-101"><mxGeometry relative="1" as="geometry"/></mxCell><mxCell id="xFf--KAxYvPF0xousI3j-103" value="Database" style="ellipse;whiteSpace=wrap;html=1;rounded=0;" vertex="1" parent="xFf--KAxYvPF0xousI3j-1"><mxGeometry x="195" y="74.85000000000002" width="120" height="60" as="geometry"/></mxCell><mxCell id="xFf--KAxYvPF0xousI3j-105" value="Water bomb" style="text;html=1;strokeColor=none;fillColor=none;align=center;verticalAlign=middle;whiteSpace=wrap;rounded=0;labelBackgroundColor=none;fontSize=12;" vertex="1" parent="xFf--KAxYvPF0xousI3j-1"><mxGeometry x="770" y="510" width="60" height="30" as="geometry"/></mxCell></root></mxGraphModel></diagram></mxfile>